<?xml version="1.0" encoding="UTF-8"?>
<svg width="2048" height="2048" version="1.1" viewBox="0 0 2048 2048" xmlns="http://www.w3.org/2000/svg" xmlns:cc="http://creativecommons.org/ns#" xmlns:dc="http://purl.org/dc/elements/1.1/" xmlns:rdf="http://www.w3.org/1999/02/22-rdf-syntax-ns#">
 <metadata>
  <rdf:RDF>
   <cc:Work rdf:about="">
    <dc:format>image/svg+xml</dc:format>
    <dc:type rdf:resource="http://purl.org/dc/dcmitype/StillImage"/>
    <dc:title/>
   </cc:Work>
  </rdf:RDF>
 </metadata>
 <defs>
  <clipPath id="clip-Installer">
   <rect width="2048" height="2048"/>
  </clipPath>
 </defs>
 <g id="Installer" clip-path="url(#clip-Installer)">
  <rect width="2048" height="2048" fill="#2a2a2a"/>
  <text id="Panda" transform="translate(751 1465)" fill="#e3e3e3" font-family="BerlinSansFB-Reg, Berlin Sans FB" font-size="200"><tspan x="0" y="178">Panda</tspan></text>
  <g id="Load" transform="translate(762 413)">
   <path id="_10_" transform="translate(-569.2 -456.07)" d="m874.27 1477.1s-7.987-58.627-11.99-131.07-4.022-158.7-4.022-158.7-13.586-2.23-23.583 0a35.535 35.535 0 0 0-16.405 8.919s17.088 94.518 25.419 164.73 7.9 116.11 7.9 116.11z" fill="#919191" data-name="10%"/>
   <path id="_20_" transform="translate(-719.93 -538.98)" d="m1006.1 1255.3s-5.322-43.308-3.757-101.43 13.148-131.48 13.148-131.48-10.8-4.588-15.652-3.757-10.017 10.644-10.017 10.644 0.626 66.366-5.635 124.59-16.278 105.18-16.278 105.18 12.365-7.2 21.913-8.139a24.364 24.364 0 0 1 16.278 4.383z" fill="#919191" data-name="20%"/>
   <path id="_30_" transform="translate(-709.93 -561.98)" d="m1024.2 1081.4s37.946 22.1 86.764 52.9 78.829 66.555 78.829 66.555-21.334-57.232-70.151-88.033-95.442-31.422-95.442-31.422z" fill="#53af59" data-name="30%"/>
   <path id="_40_" transform="translate(-945.87 -652.98)" d="m1035.9 1065.2s19.446 22.79 56.445 49.844c4.056 2.966 8.6 6.174 13.389 9.409a503.07 503.07 0 0 0 88.88 47.614s-35.729-28.492-81.286-59.294-77.428-47.573-77.428-47.573z" fill="#53af59" data-name="40%"/>
   <path id="_50_" transform="translate(-719.93 -538.98)" d="m987.11 1023.9s0.5-3.947 2.85-6.138 5.524-4.785 5.524-4.785-20.446-44.4-44.864-106.85c-18.826-48.15-40.012-107.03-48.818-131.73-2.5-7.009-3.988-11.231-3.988-11.231s-7.513 3.57-10.017 8.11 0 10.047 0 10.047 33.8 64.7 58.378 124.8 40.935 117.78 40.935 117.78z" fill="#919191" data-name="50%"/>
   <path id="_60_" transform="translate(-719.93 -538.98)" d="m1015.5 1018.5a11.634 11.634 0 0 0-6.069-5.246c-4.046-1.311-10.114 0-10.114 0l6.484-54.9s2.723-22.145 3.63-81.5 0-155.93 0-155.93 1.352-1.953 2.87-1.953 3.2 1.953 3.2 1.953v297.58z" fill="#919191" data-name="60%"/>
   <g fill="#53af59">
    <path id="_70_" transform="translate(-1035.9 -925.98)" d="m1035.9 1065.2s19.446 22.79 56.445 49.844c4.056 2.966 8.6 6.174 13.389 9.409a503.07 503.07 0 0 0 88.88 47.614s-35.729-28.492-81.286-59.294-77.428-47.573-77.428-47.573z" data-name="70%"/>
    <path id="_80_" transform="translate(573.53 -1404.5) rotate(60)" d="m1035.9 1065.2s19.446 22.79 56.445 49.844c4.056 2.966 8.6 6.174 13.389 9.409a503.07 503.07 0 0 0 88.88 47.614s-35.729-28.492-81.286-59.294-77.428-47.573-77.428-47.573z" data-name="80%"/>
    <path id="_90_" transform="translate(-736.87 -897.98)" d="m1035.9 1065.2s19.446 22.79 56.445 49.844c4.056 2.966 8.6 6.174 13.389 9.409a503.07 503.07 0 0 0 88.88 47.614s-35.729-28.492-81.286-59.294-77.428-47.573-77.428-47.573z" data-name="90%"/>
    <path id="_100_" transform="matrix(-.309 -.951 .951 -.309 -408.38 1481.9)" d="m1035.9 1065.2s17.861 19.977 51.842 43.692c3.725 2.6 7.9 5.412 12.3 8.247a470.4 470.4 0 0 0 81.632 41.737s-32.816-24.975-74.657-51.975-71.117-41.701-71.117-41.701z" data-name="100%"/>
   </g>
  </g>
 </g>
</svg>
