<svg xmlns="http://www.w3.org/2000/svg" xmlns:xlink="http://www.w3.org/1999/xlink" width="4096" height="4096" viewBox="0 0 4096 4096">
  <defs>
    <clipPath id="clip-path">
      <circle id="Mask" cx="2048" cy="2048" r="2048" transform="translate(-4 26)" fill="#fff" stroke="#707070" stroke-width="8"/>
    </clipPath>
    <clipPath id="clip-Workspace">
      <rect width="4096" height="4096"/>
    </clipPath>
  </defs>
  <g id="Workspace" clip-path="url(#clip-Workspace)">
    <g id="Mask_Group_1" data-name="Mask Group 1" transform="translate(4 -26)" clip-path="url(#clip-path)">
      <g id="Panda_Top" data-name="Panda Top" transform="matrix(0.996, 0.087, -0.087, 0.996, 2136.947, -399.656)">
        <path id="Panda_Face" data-name="Panda Face" d="M3790.211-143.934,3277.663,49.142S2812.624,220.609,2640.789,375.28s-213.147,257.172-256.845,372.364-44.2,148.077-62.545,308.678-8.588,128.807-23.262,361.32-17.546,384.187-37.813,469.756-48.884,126.356-84.469,182.239-99.039,132.638-107.608,163c-9.132,24.729-6.715,64.6-6.715,64.6s1.776,21.966,15.682,46.564,13.763,25.853,79.8,91.772,63.678,59.594,175.367,137.439,112.516,68.056,207.094,68.056,220.344-20.24,482.028-102.938,665.933-310.411,856.839-468.5,329.247-578.249,329.247-578.249L4333.535-30.593Z" transform="translate(-2061.242 143.934)" fill="#fff" stroke="#fff" stroke-width="8"/>
        <path id="Panda_Nose" data-name="Panda Nose" d="M2184.152,2133.647c-6.173-5.425-22.009-9.464,43.116-33.087s122.375-35.131,151.566-19.753,66.78,47.228,61.426,108.182-80.29,90.62-80.29,90.62-53.332-31.823-98.114-70.725S2190.325,2139.072,2184.152,2133.647Z" transform="translate(-2114.242 422.934)"/>
        <path id="Panda_Eye" data-name="Panda Eye" d="M2564.051,982.994c-14.723,136.04,35.539,250.566,99.258,319.853,75.867,82.5,136.181,74.6,159.808,72.668s47.05-11.432,69.2-35.469c44.638-44.638,66.921-156.046,0-213.892s-101.424-115.134-101.424-115.134-26.66-40.58-53.85-152.785S2578.773,846.953,2564.051,982.994Z" transform="translate(-2096 773.187)" stroke="#707070" stroke-width="8"/>
        <path id="Panda_Ear" data-name="Panda Ear" d="M3733.211,795.093c13.733-12.817,35.07-59.93,13.1-187.188s-88.661-227.287-88.661-227.287S3602.333,279.275,3509.113,225.9s-179.43-48.516-207.282-43.875-120.805,27-120.805,218.858,61.688,295.082,120.482,363.933c9.76,11.429,21.34,26.155,42.255,19.633s48.817-142.583,98.819-167.1c59.955-29.4,109.636,3.1,139.921,50.282s47.888,73.242,81.692,106.341S3719.478,807.91,3733.211,795.093Z" transform="translate(-2342.844 359.934)" fill="#010101"/>
      </g>
      <g id="Panda_Bottom_Mirror" data-name="Panda Bottom Mirror" transform="translate(-317.852 1827.792) rotate(100)">
        <path id="Panda_Face-2" data-name="Panda Face" d="M3524.593-274.842H3011.583S2651.517-410.3,2518.47-532.482,2353.436-735.641,2319.6-826.638s-34.225-116.977-48.427-243.844-15.149-164.742-26.51-348.421-13.585-303.5-29.278-371.094-37.85-99.817-65.4-143.964-76.683-104.78-83.318-128.764c-7.071-19.536-5.2-51.036-5.2-51.036s1.375-17.352,12.142-36.784,10.656-20.424,61.784-72.5,49.3-47.078,135.781-108.573,179.27-105.858,179.27-105.858,44.464-17.269,99.98-22.409,122.086,1.848,122.086,1.848,207.605,42.321,385,151.657,256.706,145.322,472.576,260.831,238.223,264.086,418.416,695.376S4174.706-378.8,4174.706-378.8Z" transform="translate(-2061.242 -30.593)" fill="#fff" stroke="#fff" stroke-width="8"/>
        <path id="Panda_Nose-2" data-name="Panda Nose" d="M2153.64-2162.177s7.458,16.346,64.6,37.075,107.378,30.826,132.992,17.332,58.6-41.44,53.9-94.924-93.038-98.148-93.038-98.148-46.154,25.368-85.45,59.5-73.007,79.163-73.007,79.163Z" transform="translate(-2119.07 -52.947)"/>
        <path id="Panda_Eye-2" data-name="Panda Eye" d="M2563.734-1031.234c-12.918-119.369,31.184-219.86,87.094-280.656,66.57-72.39,119.492-65.458,140.224-63.763s41.284,10.031,60.719,31.122c39.168,39.168,58.72,136.923,0,187.68s-88.995,101.025-88.995,101.025-23.393,35.607-47.251,134.062S2576.651-911.864,2563.734-1031.234Z" transform="translate(-2201.795 -554.041)" stroke="#707070" stroke-width="8"/>
        <path id="Panda_Ear-2" data-name="Panda Ear" d="M484.516,6.736c12.05,11.246,30.772,52.586,11.495,164.248s-77.8,199.433-77.8,199.433S369.677,459.341,287.88,506.175s-157.441,42.57-181.88,38.5S0,520.982,0,352.636,54.128,93.716,105.717,33.3c8.564-10.028,18.725-22.95,37.077-17.227S185.628,141.185,229.5,162.7c52.608,25.8,96.2-2.72,122.774-44.12S394.3,54.312,423.957,25.269,472.465-4.51,484.516,6.736Z" transform="matrix(0.978, -0.208, 0.208, 0.978, 606.873, -998.407)" fill="#010101"/>
      </g>
    </g>
  </g>
</svg>
